<svg xmlns="http://www.w3.org/2000/svg" width="200" height="260" viewBox="0 0 200 260" fill="none">
  <defs>
    <linearGradient id="g" x1="0" y1="0" x2="1" y2="1">
      <stop offset="0" stop-color="#f2ff92"/><stop offset=".45" stop-color="#d4fb20"/><stop offset="1" stop-color="#8cb400"/>
    </linearGradient>
  </defs>
  <path d="M-10 40 C60 20 140 10 160 40 C175 65 40 80 30 110 C20 140 150 120 160 150 C170 185 40 190 20 215 C5 235 70 250 110 250" stroke="#6a8902" stroke-width="44" stroke-linecap="round" transform="translate(4 6)"/>
  <path d="M-10 40 C60 20 140 10 160 40 C175 65 40 80 30 110 C20 140 150 120 160 150 C170 185 40 190 20 215 C5 235 70 250 110 250" stroke="url(#g)" stroke-width="44" stroke-linecap="round"/>
  <path d="M-10 32 C60 12 140 2 152 30 M40 100 C60 120 130 118 150 138 M30 205 C50 190 120 185 150 178" stroke="#fdffe4" stroke-opacity=".55" stroke-width="8" stroke-linecap="round"/>
</svg>
